<svg width="31" height="25" viewBox="0 0 31 25" fill="none" xmlns="http://www.w3.org/2000/svg">
<path d="M7.21964 9.23448C7.66203 8.7943 7.66381 8.07883 7.22362 7.63642C6.78343 7.19404 6.06796 7.19226 5.62556 7.63245L7.21964 9.23448ZM1.08296 12.1524C0.640571 12.5926 0.638793 13.3081 1.07898 13.7505C1.51917 14.1929 2.23464 14.1947 2.67704 13.7546L1.08296 12.1524ZM2.67704 12.1524C2.23464 11.7123 1.51917 11.7141 1.07898 12.1564C0.638793 12.5988 0.640571 13.3143 1.08296 13.7546L2.67704 12.1524ZM5.62556 18.2746C6.06796 18.7147 6.78343 18.7129 7.22362 18.2705C7.66381 17.8281 7.66203 17.1126 7.21964 16.6724L5.62556 18.2746ZM1.88 11.8235C1.25592 11.8235 0.75 12.3294 0.75 12.9535C0.75 13.5775 1.25592 14.0835 1.88 14.0835V11.8235ZM22.9733 14.0835C23.5974 14.0835 24.1033 13.5775 24.1033 12.9535C24.1033 12.3294 23.5974 11.8235 22.9733 11.8235V14.0835ZM5.62556 7.63245L1.08296 12.1524L2.67704 13.7546L7.21964 9.23448L5.62556 7.63245ZM1.08296 13.7546L5.62556 18.2746L7.21964 16.6724L2.67704 12.1524L1.08296 13.7546ZM1.88 14.0835H22.9733V11.8235H1.88V14.0835Z" fill="black"/>
<path d="M10.9199 17.4734C10.9199 20.8018 13.6182 23.5001 16.9466 23.5001H22.9733C26.3016 23.5001 28.9999 20.8018 28.9999 17.4734V8.43341C28.9999 5.10497 26.3016 2.40674 22.9733 2.40674H16.9466C13.6182 2.40674 10.9199 5.10497 10.9199 8.43341" stroke="black" stroke-width="3" stroke-linecap="round" stroke-linejoin="round"/>
</svg>
